<svg width="93" height="93" viewBox="0 0 93 93" fill="none" xmlns="http://www.w3.org/2000/svg">
<path d="M40.2664 23.1037C42.2653 17.2286 50.5745 17.2286 52.5735 23.1037L54.6544 29.2196C55.5508 31.8542 58.025 33.6259 60.808 33.6259H66.8815C73.2505 33.6259 75.8196 41.8357 70.5868 45.4663L66.1964 48.5124C63.8126 50.1663 62.8136 53.1999 63.7482 55.9466L65.5454 61.2288C67.5652 67.165 60.8384 72.2374 55.6865 68.663L50.1252 64.8045C47.8969 63.2584 44.9429 63.2584 42.7146 64.8045L37.1533 68.663C32.0015 72.2374 25.2747 67.165 27.2945 61.2288L29.0917 55.9466C30.0263 53.1999 29.0272 50.1663 26.6434 48.5124L22.2531 45.4663C17.0203 41.8357 19.5894 33.6259 25.9584 33.6259H32.0319C34.8148 33.6259 37.289 31.8542 38.1855 29.2196L40.2664 23.1037Z" fill="#999999"/>
<circle cx="46.4193" cy="46.4193" r="45.9193" stroke="#999999"/>
</svg>
