<svg width="94" height="93" viewBox="0 0 94 93" fill="none" xmlns="http://www.w3.org/2000/svg">
<path d="M40.6892 23.1196C42.6882 17.2445 50.9974 17.2445 52.9963 23.1196L55.0773 29.2355C55.9737 31.8701 58.4479 33.6417 61.2308 33.6417H67.3043C73.6733 33.6417 76.2425 41.8516 71.0096 45.4822L66.6193 48.5283C64.2355 50.1822 63.2365 53.2157 64.171 55.9625L65.9683 61.2446C67.988 67.1808 61.2612 72.2533 56.1094 68.6788L50.5481 64.8203C48.3198 63.2743 45.3658 63.2743 43.1375 64.8203L37.5762 68.6788C32.4243 72.2533 25.6975 67.1808 27.7173 61.2446L29.5145 55.9625C30.4491 53.2157 29.4501 50.1822 27.0663 48.5283L22.676 45.4822C17.4431 41.8516 20.0122 33.6417 26.3813 33.6417H32.4547C35.2377 33.6417 37.7119 31.8701 38.6083 29.2355L40.6892 23.1196Z" fill="#ED1849"/>
<circle cx="46.8422" cy="46.4352" r="45.9193" stroke="#DB364E"/>
</svg>
